<svg xmlns="http://www.w3.org/2000/svg" version="1.1" xmlns:xlink="http://www.w3.org/1999/xlink" xmlns:svgjs="http://svgjs.dev/svgjs" width="1000" height="999" viewBox="0 0 1000 999"><g transform="matrix(1,0,0,1,-0.215743440233382,-0.21552769679306039)"><svg viewBox="0 0 343 343" data-background-color="#ffffff" preserveAspectRatio="xMidYMid meet" height="999" width="1000" xmlns="http://www.w3.org/2000/svg" xmlns:xlink="http://www.w3.org/1999/xlink"><g id="tight-bounds" transform="matrix(1,0,0,1,0.0740000000000407,0.07400000000001228)"><svg viewBox="0 0 342.85155851775386 342.85155851775386" height="342.85155851775386" width="342.85155851775386"><g><svg></svg></g><g><svg viewBox="0 0 342.85155851775386 342.85155851775386" height="342.85155851775386" width="342.85155851775386"><g><path d="M0 171.426c0-94.676 76.75-171.426 171.426-171.426 94.676 0 171.426 76.75 171.426 171.426 0 94.676-76.75 171.426-171.426 171.426-94.676 0-171.426-76.75-171.426-171.426zM171.426 339.345c92.739 0 167.919-75.18 167.919-167.919 0-92.739-75.18-167.919-167.919-167.919-92.739 0-167.919 75.18-167.919 167.919 0 92.739 75.18 167.919 167.919 167.919z" data-fill-palette-color="tertiary" fill="#8abe53" stroke="transparent"></path><ellipse rx="164.56874808852186" ry="164.56874808852186" cx="171.42577925887693" cy="171.42577925887693" fill="#8abe53" stroke="transparent" stroke-width="0" fill-opacity="1" data-fill-palette-color="tertiary"></ellipse></g><g transform="matrix(1,0,0,1,64.84655864529837,120.52009637019697)"><svg viewBox="0 0 213.1584412271571 101.81136577735992" height="101.81136577735992" width="213.1584412271571"><g><svg viewBox="0 0 213.1584412271571 101.81136577735992" height="101.81136577735992" width="213.1584412271571"><g><svg viewBox="0 0 213.1584412271571 101.81136577735992" height="101.81136577735992" width="213.1584412271571"><g transform="matrix(1,0,0,1,0,62.9235085198319)"><svg viewBox="0 0 213.1584412271571 38.88785725752802" height="38.88785725752802" width="213.1584412271571"><g><svg viewBox="0 0 213.1584412271571 38.88785725752802" height="38.88785725752802" width="213.1584412271571"><g><svg viewBox="0 0 213.1584412271571 38.88785725752802" height="38.88785725752802" width="213.1584412271571"><g transform="matrix(1,0,0,1,0,0)"><svg width="213.1584412271571" viewBox="3.559999942779541 -37.5 208.2100067138672 37.9900016784668" height="38.88785725752802" data-palette-color="#ffffff"><path d="M6.15-35.55L11.74-35.55 21.85-8.45 31.96-35.55 37.57-35.55 24.07 0 19.63 0 6.15-35.55ZM3.56-35.55L8.91-35.55 9.84-11.4 9.84 0 3.56 0 3.56-35.55ZM34.81-35.55L40.16-35.55 40.16 0 33.86 0 33.86-11.4 34.81-35.55ZM61.57-5.42L61.57-17.85Q61.57-19.9 60.43-21.12 59.3-22.34 57-22.34L57-22.34Q55.64-22.34 54.61-21.86 53.59-21.39 53.02-20.58 52.46-19.78 52.46-18.75L52.46-18.75 46.41-18.75Q46.41-20.87 47.75-22.74 49.09-24.61 51.55-25.76 54-26.9 57.35-26.9L57.35-26.9Q60.32-26.9 62.64-25.9 64.96-24.9 66.29-22.88 67.62-20.85 67.62-17.8L67.62-17.8 67.62-6.15Q67.62-4.3 67.89-2.88 68.16-1.46 68.65-0.42L68.65-0.42 68.65 0 62.45 0Q62.03-0.95 61.8-2.47 61.57-3.98 61.57-5.42L61.57-5.42ZM62.45-16.09L62.5-12.35 58.35-12.35Q55.12-12.35 53.5-11.17 51.88-9.99 51.88-7.96L51.88-7.96Q51.88-6.4 52.95-5.36 54.03-4.32 55.98-4.32L55.98-4.32Q57.76-4.32 59.09-5.04 60.42-5.76 61.18-6.82 61.94-7.89 61.96-8.81L61.96-8.81 63.89-6.1Q63.6-5.1 62.9-3.97 62.2-2.83 61.07-1.82 59.93-0.81 58.38-0.16 56.83 0.49 54.78 0.49L54.78 0.49Q52.19 0.49 50.17-0.54 48.14-1.56 46.98-3.36 45.82-5.15 45.82-7.4L45.82-7.4Q45.82-11.6 48.97-13.84 52.12-16.09 57.91-16.09L57.91-16.09 62.45-16.09ZM80.17-26.42L80.17 0 74.12 0 74.12-26.42 80.17-26.42ZM73.73-33.33L73.73-33.33Q73.73-34.72 74.63-35.63 75.53-36.55 77.14-36.55L77.14-36.55Q78.75-36.55 79.68-35.63 80.61-34.72 80.61-33.33L80.61-33.33Q80.61-31.96 79.68-31.04 78.75-30.13 77.14-30.13L77.14-30.13Q75.53-30.13 74.63-31.04 73.73-31.96 73.73-33.33ZM114.49-18.29L114.49-4.57Q113.71-3.59 112.13-2.4 110.54-1.22 107.89-0.37 105.24 0.49 101.31 0.49L101.31 0.49Q96.82 0.49 93.39-1.51 89.96-3.52 88.03-7.35 86.1-11.18 86.1-16.58L86.1-16.58 86.1-18.97Q86.1-24.39 87.88-28.21 89.67-32.03 92.95-34.03 96.23-36.04 100.77-36.04L100.77-36.04Q105.17-36.04 108.06-34.57 110.95-33.11 112.52-30.53 114.08-27.95 114.47-24.61L114.47-24.61 108.29-24.61Q108.02-26.46 107.19-27.89 106.36-29.32 104.83-30.15 103.29-30.98 100.9-30.98L100.9-30.98Q98.09-30.98 96.21-29.58 94.33-28.17 93.4-25.5 92.47-22.83 92.47-19.02L92.47-19.02 92.47-16.58Q92.47-12.72 93.56-10.05 94.65-7.37 96.67-5.97 98.7-4.57 101.56-4.57L101.56-4.57Q103.61-4.57 104.92-4.91 106.24-5.25 107.01-5.74 107.78-6.23 108.2-6.67L108.2-6.67 108.2-13.55 100.92-13.55 100.92-18.29 114.49-18.29ZM136.42-6.25L136.42-26.42 142.47-26.42 142.47 0 136.76 0 136.42-6.25ZM137.25-11.77L139.27-11.82Q139.27-8.25 138.22-5.48 137.17-2.71 134.95-1.11 132.73 0.49 129.19 0.49L129.19 0.49Q125.28 0.49 122.87-1.81 120.45-4.1 120.45-9.35L120.45-9.35 120.45-26.42 126.5-26.42 126.5-9.3Q126.5-7.47 127.08-6.41 127.65-5.35 128.6-4.91 129.56-4.47 130.7-4.47L130.7-4.47Q133.17-4.47 134.6-5.43 136.03-6.4 136.64-8.06 137.25-9.72 137.25-11.77L137.25-11.77ZM154.87-26.42L154.87 0 148.82 0 148.82-26.42 154.87-26.42ZM148.43-33.33L148.43-33.33Q148.43-34.72 149.33-35.63 150.23-36.55 151.84-36.55L151.84-36.55Q153.45-36.55 154.38-35.63 155.31-34.72 155.31-33.33L155.31-33.33Q155.31-31.96 154.38-31.04 153.45-30.13 151.84-30.13L151.84-30.13Q150.23-30.13 149.33-31.04 148.43-31.96 148.43-33.33ZM177.28-5.54L177.28-37.5 183.33-37.5 183.33 0 177.84 0 177.28-5.54ZM160.14-12.92L160.14-13.43Q160.14-17.43 161.4-20.47 162.66-23.51 164.98-25.21 167.29-26.9 170.54-26.9L170.54-26.9Q173.74-26.9 175.89-25.24 178.04-23.58 179.27-20.64 180.5-17.7 180.92-13.82L180.92-13.82 180.92-12.4Q180.5-8.64 179.28-5.74 178.06-2.83 175.9-1.17 173.74 0.49 170.49 0.49L170.49 0.49Q167.29 0.49 164.98-1.26 162.66-3 161.4-6.03 160.14-9.06 160.14-12.92L160.14-12.92ZM166.2-13.43L166.2-12.92Q166.2-10.57 166.78-8.65 167.37-6.74 168.65-5.6 169.93-4.47 172.03-4.47L172.03-4.47Q174.01-4.47 175.29-5.33 176.57-6.2 177.29-7.69 178.01-9.18 178.28-11.04L178.28-11.04 178.28-15.16Q178.11-16.63 177.67-17.87 177.23-19.12 176.49-20.02 175.74-20.92 174.64-21.44 173.54-21.95 172.08-21.95L172.08-21.95Q169.98-21.95 168.67-20.81 167.37-19.68 166.78-17.74 166.2-15.8 166.2-13.43L166.2-13.43ZM201.15 0.49L201.15 0.49Q197.22 0.49 194.37-1.21 191.51-2.91 189.97-5.8 188.43-8.69 188.43-12.28L188.43-12.28 188.43-13.28Q188.43-17.41 190-20.47 191.56-23.54 194.28-25.22 197-26.9 200.45-26.9L200.45-26.9Q204.25-26.9 206.77-25.26 209.28-23.61 210.53-20.69 211.77-17.77 211.77-13.94L211.77-13.94 211.77-11.33 191.34-11.33 191.34-15.7 205.79-15.7 205.79-16.16Q205.74-17.7 205.21-19.04 204.67-20.39 203.51-21.22 202.35-22.05 200.42-22.05L200.42-22.05Q198.49-22.05 197.17-20.96 195.86-19.87 195.17-17.91 194.49-15.94 194.49-13.28L194.49-13.28 194.49-12.28Q194.49-10.03 195.32-8.25 196.15-6.47 197.74-5.43 199.32-4.39 201.52-4.39L201.52-4.39Q203.64-4.39 205.29-5.22 206.94-6.05 208.14-7.62L208.14-7.62 211.31-4.44Q210.07-2.56 207.56-1.04 205.06 0.49 201.15 0.49Z" opacity="1" transform="matrix(1,0,0,1,0,0)" fill="#ffffff" class="undefined-text-0" data-fill-palette-color="quaternary" id="text-0"></path></svg></g></svg></g></svg></g></svg></g><g transform="matrix(1,0,0,1,83.38121634720304,0)"><svg viewBox="0 0 46.39600853275105 53.74301872990372" height="53.74301872990372" width="46.39600853275105"><g><svg xmlns="http://www.w3.org/2000/svg" xmlns:xlink="http://www.w3.org/1999/xlink" version="1.1" x="0" y="0" viewBox="9.63800048828125 3.246999979019165 80.7239990234375 93.50699615478516" enable-background="new 0 0 100 100" xml:space="preserve" height="53.74301872990372" width="46.39600853275105" class="icon-icon-0" data-fill-palette-color="quaternary" id="icon-0"><g fill="#ffffff" data-fill-palette-color="quaternary"><g fill="#ffffff" data-fill-palette-color="quaternary"><polygon points="36.703,11.011 9.638,26.636 9.638,38.757 36.703,23.131 63.767,38.757 63.767,26.636   " fill="#ffffff" data-fill-palette-color="quaternary"></polygon></g><g fill="#ffffff" data-fill-palette-color="quaternary"><polygon points="63.298,89.092 36.233,73.467 36.233,61.348 63.298,76.973 90.362,61.348 90.362,73.467   " fill="#ffffff" data-fill-palette-color="quaternary"></polygon></g><g fill="#ffffff" data-fill-palette-color="quaternary"><polygon points="9.638,42.012 36.703,26.386 47.198,32.446 20.134,48.072 20.134,79.324 9.638,73.264   " fill="#ffffff" data-fill-palette-color="quaternary"></polygon></g><g fill="#ffffff" data-fill-palette-color="quaternary"><polygon points="77.083,18.872 50.018,3.247 39.522,9.307 66.586,24.932 66.586,56.184 77.083,50.124   " fill="#ffffff" data-fill-palette-color="quaternary"></polygon></g><g fill="#ffffff" data-fill-palette-color="quaternary"><polygon points="23.01,81.127 23.011,49.876 33.507,43.816 33.507,75.068 60.571,90.693 50.075,96.754   " fill="#ffffff" data-fill-palette-color="quaternary"></polygon></g><g fill="#ffffff" data-fill-palette-color="quaternary"><polygon points="90.362,58.092 90.362,26.84 79.866,20.78 79.866,52.031 52.802,67.658 63.298,73.719   " fill="#ffffff" data-fill-palette-color="quaternary"></polygon></g></g></svg></g></svg></g><g></g></svg></g></svg></g></svg></g></svg></g><defs></defs></svg><rect width="342.85155851775386" height="342.85155851775386" fill="none" stroke="none" visibility="hidden"></rect></g></svg></g></svg>